HIERARCHY
ROOT root
{
	OFFSET 0.000000 0.000000 0.000000
	CHANNELS 6 Xposition Yposition Zposition Zrotation Yrotation Xrotation
	JOINT lhip
	{
		OFFSET 0.058581 -0.082280 -0.017664
		CHANNELS 3 Zrotation Yrotation Xrotation
		JOINT lknee
		{
			OFFSET 0.043451 -0.386469 0.008037
			CHANNELS 3 Zrotation Yrotation Xrotation
			JOINT lankle
			{
				OFFSET -0.014790 -0.426874 -0.037428
				CHANNELS 3 Zrotation Yrotation Xrotation
				JOINT ltoe
				{
					OFFSET 0.041054 -0.060286 0.122042
					CHANNELS 3 Zrotation Yrotation Xrotation
					End Site
					{
						OFFSET 0.000000 0.000000 0.000000
					}
				}
			}
		}
	}
	JOINT rhip
	{
		OFFSET -0.060310 -0.090513 -0.013543
		CHANNELS 3 Zrotation Yrotation Xrotation
		JOINT rknee
		{
			OFFSET -0.043257 -0.383688 -0.004843
			CHANNELS 3 Zrotation Yrotation Xrotation
			JOINT rankle
			{
				OFFSET 0.019056 -0.420046 -0.034562
				CHANNELS 3 Zrotation Yrotation Xrotation
				JOINT rtoe
				{
					OFFSET -0.034840 -0.062106 0.130323
					CHANNELS 3 Zrotation Yrotation Xrotation
					End Site
					{
						OFFSET 0.000000 0.000000 0.000000
					}
				}
			}
		}
	}
	JOINT lowerback
	{
		OFFSET 0.004439 0.124404 -0.038385
		CHANNELS 3 Zrotation Yrotation Xrotation
		JOINT upperback
		{
			OFFSET 0.004488 0.137956 0.026820
			CHANNELS 3 Zrotation Yrotation Xrotation
			JOINT chest
			{
				OFFSET -0.002265 0.056032 0.002855
				CHANNELS 3 Zrotation Yrotation Xrotation
				JOINT lowerneck
				{
					OFFSET -0.013390 0.211636 -0.033468
					CHANNELS 3 Zrotation Yrotation Xrotation
					JOINT upperneck
					{
						OFFSET 0.010113 0.088937 0.050410
						CHANNELS 3 Zrotation Yrotation Xrotation
						End Site
						{
							OFFSET 0.000000 0.000000 0.000000
						}
					}
				}
				JOINT lclavicle
				{
					OFFSET 0.071702 0.114000 -0.018898
					CHANNELS 3 Zrotation Yrotation Xrotation
					JOINT lshoulder
					{
						OFFSET 0.122921 0.045205 -0.019046
						CHANNELS 3 Zrotation Yrotation Xrotation
						JOINT lelbow
						{
							OFFSET 0.255332 -0.015649 -0.022946
							CHANNELS 3 Zrotation Yrotation Xrotation
							JOINT lwrist
							{
								OFFSET 0.265709 0.012698 -0.007375
								CHANNELS 3 Zrotation Yrotation Xrotation
								End Site
								{
									OFFSET 0.000000 0.000000 0.000000
								}
							}
						}
					}
				}
				JOINT rclavicle
				{
					OFFSET -0.082954 0.112472 -0.023707
					CHANNELS 3 Zrotation Yrotation Xrotation
					JOINT rshoulder
					{
						OFFSET -0.113228 0.046853 -0.008472
						CHANNELS 3 Zrotation Yrotation Xrotation
						JOINT relbow
						{
							OFFSET -0.260127 -0.014369 -0.031269
							CHANNELS 3 Zrotation Yrotation Xrotation
							JOINT rwrist
							{
								OFFSET -0.269108 0.006794 -0.006027
								CHANNELS 3 Zrotation Yrotation Xrotation
								End Site
								{
									OFFSET 0.000000 0.000000 0.000000
								}
							}
						}
					}
				}
			}
		}
	}
}
MOTION
Frames: 13
Frame Time: 0.033333
1.053357 0.531570 0.988132 129.178023 2.006694 92.103171 -0.515818 -3.553203 -12.587726 -1.926157 7.341300 16.200313 13.239279 27.027986 -22.353443 0.000000 -0.000000 0.000000 -3.041625 3.766138 -14.046647 4.737703 0.717345 45.328056 3.265436 -18.238548 -18.197928 0.000000 -0.000000 0.000000 -1.060529 -4.155435 4.786452 1.396010 -5.351072 -7.199631 -2.255735 -3.260725 3.286079 0.120045 9.031998 -11.893636 2.800252 11.618243 1.593507 -21.660601 1.721583 -1.302356 -25.108292 -15.188758 -10.544523 28.071861 -28.888745 -32.808548 21.610003 -8.378092 -11.365344 21.506034 -10.785636 -4.865879 59.419493 -12.123639 2.959836 -23.762879 11.905957 -32.440642 -8.981249 6.674472 -17.784077 
1.047400 0.522304 0.993225 122.500783 2.403015 92.822351 0.117406 -1.536718 -12.056896 -1.389869 11.096130 13.005094 13.629735 27.233499 -20.672297 0.000000 -0.000000 0.000000 -4.560824 0.434889 -12.832723 4.393221 -3.089430 43.259130 2.453212 -19.200869 -17.721836 0.000000 -0.000000 0.000000 -0.272867 -3.489731 3.293127 1.336034 -4.991491 -7.063092 -2.242914 -2.916556 3.007774 -0.226296 7.994837 -12.182769 2.786524 10.870199 3.088350 -21.264781 1.192239 -1.034374 -26.899362 -15.996551 -9.808136 27.846631 -29.326154 -32.574945 22.514509 -6.934477 -14.511352 21.649351 -10.050632 -4.161751 58.684125 -10.526201 3.391554 -24.687008 13.787663 -32.599655 -9.456164 6.634923 -18.925020 
1.040665 0.511607 0.995867 115.775016 2.546654 93.717936 0.659614 0.702516 -11.901506 -1.387606 15.069347 10.155824 14.190022 27.098959 -19.467292 0.000000 -0.000000 0.000000 -6.575035 -2.620382 -12.306595 4.415849 -6.331527 41.312852 1.844722 -19.469200 -17.363357 0.000000 -0.000000 0.000000 0.031044 -2.565475 1.770011 1.340736 -4.615569 -6.604973 -2.157142 -2.441324 2.554621 -0.497821 7.486584 -12.814619 2.701087 9.477996 4.299168 -21.183950 0.024678 -0.540831 -27.737293 -16.259476 -9.030865 26.544054 -29.695357 -31.232132 22.450530 -7.051026 -15.140909 22.220590 -8.765893 -3.118478 57.990697 -8.620541 3.419818 -25.143439 15.356857 -32.656151 -8.980483 7.151595 -18.928895 
1.031564 0.496323 0.995768 107.671894 2.601917 94.982420 1.604992 3.292308 -12.353064 -2.061271 20.116947 7.592694 14.880939 26.866148 -18.583488 0.000000 -0.000000 0.000000 -8.788390 -5.867561 -12.238135 3.957366 -9.836918 38.058590 1.499541 -19.570587 -14.949472 0.000000 -0.000000 0.000000 0.029077 -1.383112 0.059544 1.441410 -4.244285 -5.833943 -2.046207 -1.858552 1.861334 -0.885346 6.823941 -13.845868 2.558286 7.647488 5.054019 -21.750406 -1.875892 0.350844 -27.444206 -15.876385 -7.897309 23.794518 -30.598315 -27.734325 21.742899 -8.265543 -13.808534 23.947173 -6.489743 -1.253795 56.848783 -5.769772 3.762343 -25.506688 17.066636 -33.082180 -9.595361 7.422155 -18.904779 
1.025560 0.485977 0.994964 103.036195 2.550087 95.639520 2.385864 4.522573 -12.819970 -2.730950 23.254759 6.740383 15.068401 26.760310 -18.453388 0.000000 -0.000000 0.000000 -9.696921 -7.301915 -12.269917 3.262724 -11.603868 35.425654 2.455167 -19.716618 -11.304054 0.000000 -0.000000 0.000000 -0.242374 -0.759623 -0.649511 1.543922 -4.092627 -5.225416 -1.945166 -1.567606 1.245302 -1.187932 6.129467 -14.649747 2.583595 6.995342 5.209969 -22.624792 -3.092506 1.187760 -26.475342 -15.470847 -7.351674 21.837921 -31.327019 -25.349573 21.148338 -9.522569 -12.056356 25.633192 -4.771655 0.203147 55.815258 -3.857089 4.338421 -25.627668 18.184516 -34.372194 -11.325361 7.154432 -19.070182 
1.017408 0.471535 0.993320 97.143105 2.345669 96.350851 3.574617 6.239420 -13.506046 -3.777614 26.812254 6.431990 14.354746 26.861736 -18.794783 0.000000 -0.000000 0.000000 -10.483600 -8.211960 -11.946819 3.614042 -12.088018 30.604323 7.027836 -16.733170 -10.218631 0.000000 -0.000000 0.000000 -0.863026 -0.043977 -1.104957 1.646259 -4.184106 -4.646335 -1.807028 -1.127832 0.544529 -1.398547 5.612862 -16.121144 2.727938 5.763225 5.530436 -23.999659 -4.793924 2.266840 -25.281428 -14.775774 -6.500331 19.367628 -32.219546 -21.904284 20.882988 -11.232166 -10.071928 28.027214 -2.252477 2.338191 54.793638 -1.235701 5.235076 -25.931702 20.320578 -35.497609 -14.271759 6.394862 -19.992959 
1.009606 0.457562 0.991919 91.871724 2.092054 96.870111 4.596955 7.655916 -13.999699 -4.438101 29.572446 6.507530 13.919144 26.929544 -19.080436 0.000000 -0.000000 0.000000 -10.812340 -8.402638 -11.402441 5.202713 -10.683108 25.602369 8.487206 -12.773782 -11.290629 0.000000 -0.000000 0.000000 -1.348800 0.288867 -1.539755 1.682152 -4.538035 -3.573155 -1.752652 -0.910607 -0.180853 -1.439430 6.531862 -17.692382 2.379456 3.253107 5.717910 -25.070204 -5.995318 3.090994 -25.653040 -14.358563 -5.443136 17.705085 -33.081753 -19.109533 20.459685 -12.138793 -8.895858 29.747557 -0.101316 4.207817 54.842267 1.781034 6.517444 -26.637958 23.649738 -34.994215 -16.976333 5.388148 -20.742920 
1.001410 0.444475 0.992447 87.281614 2.006698 97.268817 5.283498 8.115924 -14.189789 -4.558388 31.185518 6.106202 13.646819 26.603966 -19.209370 0.000000 -0.000000 0.000000 -10.433440 -7.527144 -11.670575 6.463454 -8.294213 22.114768 7.572517 -11.333668 -11.920667 0.000000 -0.000000 0.000000 -1.259258 -0.031371 -1.844751 1.674062 -4.772569 -2.615259 -1.787652 -1.017348 -0.761657 -1.543931 6.306977 -19.024273 1.941277 1.920415 6.193078 -25.906962 -6.634710 3.643192 -27.826337 -14.242808 -4.058299 16.817159 -33.653276 -17.765955 19.773687 -12.295054 -8.813515 30.524196 1.753915 5.167702 55.546970 4.388670 8.785059 -26.992697 28.500523 -33.362340 -17.402236 5.479170 -20.961365 
0.994318 0.432882 0.995107 83.130571 2.260570 97.487889 5.681345 8.043996 -13.827729 -4.567720 30.178656 4.741322 12.478269 25.139977 -19.536435 0.000000 -0.000000 0.000000 -9.315974 -5.550862 -12.543848 6.849756 -6.208123 20.066262 6.041055 -11.590923 -11.696172 0.000000 -0.000000 0.000000 -0.370801 -0.908846 -1.978857 1.711670 -4.843143 -2.072286 -1.878289 -1.305605 -1.085974 -1.835798 4.877171 -20.068679 1.653033 2.284664 6.722565 -26.937323 -7.022710 4.186436 -31.386553 -14.389017 -2.431760 16.623773 -33.343724 -17.386945 19.222420 -12.235909 -9.791990 30.542622 3.438373 5.734566 55.890684 6.414453 11.620267 -26.112455 35.345906 -29.125985 -14.626803 7.061547 -21.964130 
0.987635 0.419453 1.000507 78.040060 2.897595 97.152567 6.202418 7.471023 -12.549273 -4.075586 26.572469 3.163604 9.758952 23.025133 -20.693020 0.000000 -0.000000 0.000000 -7.181040 -2.487495 -12.640074 5.666339 -5.060939 17.576232 5.144466 -11.277626 -10.270215 0.000000 -0.000000 0.000000 1.207647 -2.142275 -1.365987 1.772619 -4.990393 -1.907776 -1.698127 -1.568946 -1.409511 -2.289854 3.629754 -20.736770 1.303006 2.754967 7.016215 -28.591407 -8.043195 5.328900 -37.340993 -14.704267 -0.160095 17.451329 -31.571537 -17.397682 18.732747 -11.851670 -11.863720 29.846735 5.740650 6.161304 55.541538 7.924397 14.829685 -23.414254 46.500497 -19.943718 -8.340910 10.271055 -24.729127 
0.983849 0.408512 1.004628 73.986724 3.373553 96.559504 6.655118 6.588923 -11.036777 -3.398598 23.760043 2.286868 8.366474 21.456864 -21.915502 0.000000 -0.000000 0.000000 -5.640348 -0.029170 -11.751101 4.893545 -4.076763 15.086995 4.724856 -10.813250 -8.959251 0.000000 -0.000000 0.000000 2.175300 -2.862373 -0.874986 1.912917 -5.137490 -1.654144 -1.323510 -1.798964 -1.911695 -2.392485 2.134409 -20.511237 1.110424 3.855046 7.459670 -29.896472 -9.528223 6.305270 -42.836637 -15.154313 1.913140 17.978497 -28.960898 -17.253633 18.300477 -11.607512 -12.127943 28.744081 7.885980 6.256105 54.951925 8.552980 17.066765 -19.734995 55.845214 -11.216826 -2.324240 13.743855 -26.454216 
0.980577 0.396624 1.007435 69.910183 3.691522 95.938880 7.140919 5.709154 -9.706598 -2.545166 22.051511 2.361399 7.590276 20.152085 -23.188880 0.000000 -0.000000 0.000000 -4.505198 1.819603 -10.825346 4.648022 -2.265983 13.048539 4.455924 -9.859077 -8.028077 0.000000 -0.000000 0.000000 2.643140 -3.189639 -0.819871 2.129102 -5.356429 -1.213104 -0.919190 -2.100803 -2.448801 -2.213632 0.165268 -19.644698 1.144481 5.646979 8.233825 -30.916136 -11.460808 7.102910 -48.403963 -15.803433 4.173197 17.973023 -26.007001 -16.304008 17.299316 -11.630286 -11.204290 27.620735 10.121114 6.098615 54.288622 9.254382 18.833277 -14.313889 64.128499 -1.541532 4.228715 17.680411 -26.586707 
0.977247 0.384106 1.008942 66.066556 4.196361 95.367182 8.056164 5.140008 -9.209134 -1.398593 20.857651 4.375317 7.089015 19.068619 -24.630640 0.000000 -0.000000 0.000000 -3.275175 2.609400 -10.132230 4.798630 0.033358 11.704391 4.148998 -8.313110 -7.453250 0.000000 -0.000000 0.000000 3.153600 -3.362257 -1.045990 2.350642 -5.687431 -0.630705 -0.631459 -2.621383 -3.214653 -1.687718 -1.918658 -18.267009 1.379711 8.110999 9.423977 -32.133050 -13.797763 8.266766 -53.223188 -16.321708 6.229135 18.059801 -24.053013 -14.353449 14.694628 -12.145584 -10.002157 26.952531 12.630993 6.003297 53.591748 9.865873 19.939139 -7.182099 70.768679 8.841513 10.935776 21.383984 -25.802482 
